<?xml version="1.0" standalone="no"?>
<!DOCTYPE svg PUBLIC "-//W3C//DTD SVG 20010904//EN"
 "http://www.w3.org/TR/2001/REC-SVG-20010904/DTD/svg10.dtd">
<svg version="1.0" xmlns="http://www.w3.org/2000/svg"
 width="1085.000000pt" height="1085.000000pt" viewBox="0 0 1085.000000 1085.000000"
 preserveAspectRatio="xMidYMid meet">
<metadata>
Created by potrace 1.11, written by Peter Selinger 2001-2013
</metadata>
<g transform="translate(0.000000,1085.000000) scale(0.100000,-0.100000)"
fill="#000000" stroke="none">
<path d="M2097 10536 c-62 -17 -116 -61 -147 -122 l-25 -48 -3 -547 -3 -547
-547 -4 -547 -4 -100 -27 c-341 -92 -598 -348 -692 -692 l-28 -100 0 -3655 0
-3655 28 -100 c94 -344 348 -598 692 -692 l100 -28 3655 0 3655 0 100 28 c344
94 598 348 692 692 l28 100 3 2342 2 2342 306 483 c168 266 316 499 329 518
18 28 260 409 484 762 20 32 102 158 182 280 371 568 581 907 574 928 -25 78
-271 336 -447 468 -275 206 -595 363 -808 396 -140 22 -118 41 -327 -284 -101
-157 -206 -319 -232 -360 -27 -41 -76 -117 -109 -168 l-60 -93 -32 53 c-130
213 -340 369 -585 435 l-100 27 -547 4 -548 4 0 518 c0 338 -4 537 -11 570
-14 66 -62 127 -124 159 l-49 26 -456 0 -456 0 -49 -26 c-62 -32 -110 -93
-124 -159 -7 -33 -11 -233 -11 -570 l0 -520 -1280 0 -1280 0 0 520 c0 337 -4
537 -11 570 -14 66 -62 127 -124 159 l-49 26 -436 2 c-333 2 -446 -1 -483 -11z
m5856 -3200 c-4 -7 -84 -132 -176 -277 -295 -463 -906 -1421 -954 -1497 -25
-40 -50 -69 -54 -65 -4 4 -36 55 -71 113 -252 418 -616 751 -1063 971 -171 84
-392 162 -560 199 -226 48 -279 52 -757 57 l-458 5 0 -276 0 -276 -560 0 -560
0 0 -570 0 -570 -425 0 -425 0 0 -835 0 -835 425 0 425 0 0 -575 0 -575 560 0
560 0 0 -270 0 -270 373 0 c404 0 541 10 762 56 187 39 428 124 623 220 95 46
175 84 177 84 11 0 1234 756 1275 788 125 96 133 107 759 1096 l171 270 0
-1473 c0 -1617 4 -1513 -60 -1546 -26 -13 -413 -15 -3460 -15 -3047 0 -3434 2
-3460 15 -65 34 -60 -225 -60 3070 l0 2995 3500 0 c2944 0 3500 -2 3493 -14z
m-1680 -3713 c8 -38 28 -125 43 -195 15 -71 33 -128 38 -128 6 0 94 18 195 41
101 22 186 37 190 32 4 -4 22 -75 40 -157 27 -124 31 -151 19 -161 -7 -7 -94
-61 -193 -120 -99 -60 -267 -162 -373 -227 -105 -65 -195 -118 -198 -118 -4 0
-22 14 -41 31 -19 16 -60 42 -90 57 l-54 27 6 50 c4 27 8 61 10 75 2 14 18
151 35 305 17 154 33 291 35 305 3 14 8 57 11 96 4 40 10 77 13 83 7 10 234
68 277 70 19 1 24 -8 37 -66z"/>
</g>
</svg>
